<svg xmlns="http://www.w3.org/2000/svg" viewBox="0 0 300 300"><g id="freepik--Character--inject-32"><path d="M115.33,157.05s16.76,7.72,75.43,1.43L181,236.4a209.4,209.4,0,0,1-64.36-6.66Z" style="fill:#72BF44"></path><path d="M115.33,157.05s16.76,7.72,75.43,1.43L181,236.4a209.4,209.4,0,0,1-64.36-6.66Z" style="fill:#fff;opacity:0.8"></path><path d="M121.19,164.54l1.09,60.75a209.35,209.35,0,0,0,53.63,5.62l8.28-66C149.85,168.11,130.81,166.38,121.19,164.54Z" style="opacity:0.1"></path><path d="M185.8,234.7c-.11,1.18-2.27,2-4.81,1.7s-4.52-1.41-4.4-2.59l5.66-77.35c.16-1.65,3.16-2.72,6.7-2.37s6.28,2,6.12,3.61Z" style="fill:#72BF44"></path><path d="M185.8,234.7c-.11,1.18-2.27,2-4.81,1.7s-4.52-1.41-4.4-2.59l5.66-77.35c.16-1.65,3.16-2.72,6.7-2.37s6.28,2,6.12,3.61Z" style="fill:#fff;opacity:0.6000000000000001"></path><path d="M185.8,234.7c-.11,1.18-2.27,2-4.81,1.7s-4.52-1.41-4.4-2.59,2.27-1.95,4.81-1.71S185.92,233.51,185.8,234.7Z" style="opacity:0.1"></path><path d="M158.62,197.08l1.53.06c0-.23,0-.35.09-.59l-.92,0c.06-.35.09-.53.14-.88l-.61,0C158.76,196.19,158.71,196.49,158.62,197.08Z" style="fill:#72BF44"></path><path d="M161.69,196.61l1.45,0c0,.24,0,.36-.08.6l-1.46-.05C161.64,197,161.65,196.84,161.69,196.61Zm2.9.08,1.46,0c0,.24-.05.36-.08.6l-1.46,0C164.54,197.05,164.56,196.93,164.59,196.69Z" style="fill:#72BF44"></path><path d="M167.5,196.75l1.45,0c0,.25,0,.37-.07.61l-1.46,0C167.45,197.12,167.47,197,167.5,196.75Zm2.91,0h1.45c0,.25,0,.37-.06.61h-1.46C170.37,197.15,170.38,197,170.41,196.79Zm2.91,0h1.46c0,.24,0,.37-.07.61h-1.45C173.28,197.16,173.29,197,173.32,196.79Z" style="fill:#72BF44"></path><path d="M176.17,197.39l1.53,0c.06-.62.09-.93.14-1.55h-.61c0,.37,0,.56-.08.93h-.92C176.21,197,176.2,197.14,176.17,197.39Z" style="fill:#72BF44"></path><path d="M177.5,192.88h.6c0,.59-.08.89-.13,1.48h-.6C177.42,193.77,177.45,193.47,177.5,192.88Zm.26-2.95.6,0c-.05.59-.08.89-.13,1.48l-.6,0C177.68,190.81,177.71,190.52,177.76,189.93Z" style="fill:#72BF44"></path><path d="M178,187l.59,0c0,.6-.07.89-.12,1.49l-.59,0C177.94,187.86,178,187.56,178,187Zm.24-3,.59,0c-.05.59-.07.89-.12,1.48l-.59,0C178.18,184.89,178.21,184.6,178.25,184Zm.24-3,.58,0c0,.6-.07.9-.11,1.49l-.59,0C178.42,181.93,178.44,181.63,178.49,181Z" style="fill:#72BF44"></path><path d="M178.61,179.55l.57,0c0-.62.07-.93.12-1.56l-1.43.09-.05.62.86,0C178.65,179,178.64,179.17,178.61,179.55Z" style="fill:#72BF44"></path><path d="M172.39,178.3l1.37-.05c0,.24,0,.37-.06.61l-1.37.06C172.36,178.67,172.37,178.55,172.39,178.3Zm2.74-.12,1.37-.07-.05.63-1.38.06C175.1,178.55,175.11,178.43,175.13,178.18Z" style="fill:#72BF44"></path><path d="M164.18,178.5h1.37c0,.24-.05.36-.08.6H164.1C164.14,178.86,164.15,178.74,164.18,178.5Zm2.74,0,1.37,0c0,.24,0,.37-.07.61l-1.37,0C166.87,178.83,166.89,178.7,166.92,178.46Zm2.73-.06,1.37-.05c0,.25,0,.37-.06.61l-1.37,0C169.61,178.76,169.63,178.64,169.65,178.4Z" style="fill:#72BF44"></path><path d="M161.17,180h.58c.05-.36.07-.53.12-.89h.86c0-.24.05-.36.08-.6h-1.43C161.3,179.12,161.25,179.42,161.17,180Z" style="fill:#72BF44"></path><path d="M160.56,184.28h.58l-.2,1.42h-.59C160.44,185.13,160.48,184.85,160.56,184.28Zm.41-2.84h.58l-.2,1.42h-.58Z" style="fill:#72BF44"></path><path d="M159.29,192.78l.6,0c-.08.56-.13.85-.21,1.41l-.61,0C159.16,193.63,159.2,193.34,159.29,192.78Zm.43-2.83.6,0c-.09.56-.13.85-.22,1.41l-.59,0C159.59,190.8,159.64,190.52,159.72,190Zm.42-2.83h.59l-.2,1.42-.6,0C160,188,160.06,187.68,160.14,187.12Z" style="fill:#72BF44"></path><path d="M140.24,195.68l1.52.16c.05-.23.07-.34.12-.56l-.9-.1c.07-.33.11-.5.18-.84l-.6-.06Z" style="fill:#72BF44"></path><path d="M143.33,195.42l1.44.13-.12.57L143.2,196Zm2.89.26,1.44.12c0,.23-.07.34-.11.57l-1.45-.12C146.15,196,146.17,195.9,146.22,195.68Z" style="fill:#72BF44"></path><path d="M149.11,195.91l1.45.11c-.05.23-.07.34-.11.57l-1.45-.11C149,196.25,149.06,196.14,149.11,195.91Zm2.89.2,1.45.1-.1.58-1.45-.1Zm2.9.18,1.45.08-.1.59-1.45-.08Z" style="fill:#72BF44"></path><path d="M157.71,197l1.52.07c.09-.59.14-.88.23-1.47l-.61,0c0,.36-.08.53-.14.89l-.91-.05C157.76,196.68,157.75,196.8,157.71,197Z" style="fill:#72BF44"></path><path d="M159.29,192.78l.6,0c-.08.56-.13.85-.21,1.41l-.61,0C159.16,193.62,159.2,193.34,159.29,192.78Zm.43-2.83.6,0c-.09.56-.13.85-.22,1.41l-.59,0C159.59,190.8,159.64,190.52,159.72,190Z" style="fill:#72BF44"></path><path d="M160.14,187.12h.59l-.2,1.42-.6,0C160,188,160.06,187.68,160.14,187.12Zm.42-2.84h.58l-.2,1.42h-.59C160.44,185.13,160.48,184.85,160.56,184.28Zm.41-2.84h.58l-.2,1.42h-.58Z" style="fill:#72BF44"></path><path d="M161.17,180h.58l.2-1.49h-1.43c0,.24-.05.36-.08.59h.86C161.25,179.47,161.22,179.65,161.17,180Z" style="fill:#72BF44"></path><path d="M155.05,178.46l1.37,0-.1.59L155,179Zm2.73,0h1.37c0,.24-.05.36-.09.6l-1.37,0C157.73,178.86,157.75,178.74,157.78,178.5Z" style="fill:#72BF44"></path><path d="M146.86,178.17l1.36.06c0,.23-.07.35-.11.58l-1.37-.07C146.79,178.52,146.81,178.4,146.86,178.17Zm2.73.12,1.36.05-.1.58-1.37,0C149.52,178.64,149.54,178.52,149.59,178.29Zm2.73.1,1.36,0c0,.24-.05.36-.09.59l-1.37,0Z" style="fill:#72BF44"></path><path d="M143.77,179.44l.57,0c.07-.34.11-.51.18-.86l.86,0c0-.23.06-.34.11-.57l-1.43-.08C143.94,178.59,143.88,178.87,143.77,179.44Z" style="fill:#72BF44"></path><path d="M142.91,183.51l.58,0-.28,1.35-.59,0C142.74,184.32,142.8,184.05,142.91,183.51Zm.57-2.71.58,0-.28,1.35-.58,0Z" style="fill:#72BF44"></path><path d="M141.16,191.59l.6.06-.3,1.35-.6-.06Zm.59-2.69.59,0c-.12.54-.17.81-.29,1.35l-.6-.05Zm.58-2.69.59,0c-.11.54-.17.81-.29,1.36l-.59-.05C142.16,187,142.22,186.75,142.33,186.21Z" style="fill:#72BF44"></path><path d="M122,193.21l1.5.24.15-.53-.9-.15c.1-.31.15-.47.24-.79l-.6-.1C122.24,192.41,122.17,192.68,122,193.21Z" style="fill:#72BF44"></path><path d="M125.1,193.14l1.43.22-.15.54-1.44-.22C125,193.47,125,193.36,125.1,193.14Zm2.86.43,1.44.21-.15.54-1.44-.2Z" style="fill:#72BF44"></path><path d="M130.83,194l1.44.19c-.06.22-.09.33-.14.55l-1.44-.2C130.75,194.31,130.77,194.2,130.83,194Zm2.87.37,1.44.18c0,.22-.08.33-.13.56l-1.44-.19Zm2.88.35,1.44.17c-.05.22-.08.33-.13.56l-1.44-.17C136.5,195,136.53,194.93,136.58,194.7Z" style="fill:#72BF44"></path><path d="M139.34,195.59l1.51.16c.13-.56.19-.85.31-1.41l-.6-.06c-.08.34-.11.51-.19.84l-.91-.09C139.41,195.25,139.39,195.36,139.34,195.59Z" style="fill:#72BF44"></path><path d="M141.16,191.59l.6.06-.3,1.35-.6-.06Zm.59-2.69.59,0c-.12.54-.17.81-.29,1.35l-.6-.05Z" style="fill:#72BF44"></path><path d="M142.33,186.21l.59,0c-.11.54-.17.81-.29,1.36l-.59-.05C142.16,187,142.22,186.75,142.33,186.21Zm.58-2.7.58,0-.28,1.35-.59,0C142.74,184.32,142.8,184.05,142.91,183.51Zm.57-2.71.58,0-.28,1.35-.58,0Z" style="fill:#72BF44"></path><path d="M143.77,179.44l.57,0c.12-.57.18-.86.29-1.43L143.2,178c0,.23-.07.34-.12.57l.86.05Z" style="fill:#72BF44"></path><path d="M137.75,177.58l1.36.11c-.05.22-.07.34-.12.56l-1.37-.11C137.67,177.92,137.7,177.81,137.75,177.58Zm2.73.21,1.36.09-.12.57-1.37-.1Z" style="fill:#72BF44"></path><path d="M129.59,176.82,131,177c-.06.22-.08.33-.14.55l-1.36-.15C129.51,177.14,129.53,177,129.59,176.82Zm2.72.28,1.36.13c-.06.22-.08.33-.14.55l-1.36-.13C132.23,177.43,132.25,177.32,132.31,177.1Zm2.72.25,1.36.12-.13.56-1.36-.12Z" style="fill:#72BF44"></path><path d="M126.44,177.85l.57.07c.09-.33.13-.49.22-.81l.86.1c.06-.22.09-.33.14-.55l-1.42-.16Z" style="fill:#72BF44"></path><path d="M125.36,181.69l.57.08c-.14.51-.21.77-.36,1.28L125,183Zm.72-2.56.57.07c-.14.52-.21.77-.36,1.29l-.57-.08C125.86,179.9,125.94,179.64,126.08,179.13Z" style="fill:#72BF44"></path><path d="M123.15,189.34l.59.09c-.15.51-.22.77-.37,1.27l-.59-.09Zm.74-2.54.59.08-.37,1.28-.59-.09Zm.74-2.55.58.08c-.15.51-.22.77-.36,1.28l-.59-.09Z" style="fill:#72BF44"></path><path d="M149.82,218.82l1.63.18c0-.23.06-.35.11-.58l-1-.1.17-.87-.65-.07C150,218,149.93,218.25,149.82,218.82Z" style="fill:#72BF44"></path><path d="M153.57,218.63l2,.2-.1.58-2-.2C153.5,219,153.52,218.86,153.57,218.63Zm4,.38,2,.17-.1.59-2-.17Z" style="fill:#72BF44"></path><path d="M161.63,219.34l2,.15c0,.24-.06.36-.09.59-.81-.05-1.22-.08-2-.15Zm4,.28,2,.13c0,.24-.05.36-.08.6l-2-.13C165.62,220,165.63,219.86,165.67,219.62Zm4,.24,2,.09c0,.25-.05.37-.08.61l-2-.1C169.67,220.22,169.68,220.1,169.71,219.86Z" style="fill:#72BF44"></path><path d="M173.69,220.65l1.65.06c.07-.61.1-.91.17-1.53l-.66,0-.1.92-1,0C173.74,220.28,173.72,220.4,173.69,220.65Z" style="fill:#72BF44"></path><path d="M175.27,215.39h.65c-.08.76-.12,1.14-.21,1.89h-.65C175.15,216.52,175.19,216.14,175.27,215.39Zm.41-3.79.64,0-.2,1.89h-.64Z" style="fill:#72BF44"></path><path d="M176.07,207.81h.63c-.07.76-.11,1.14-.19,1.9h-.63C176,209,176,208.57,176.07,207.81Zm.38-3.79h.63c-.08.76-.11,1.14-.19,1.9h-.63C176.34,205.16,176.38,204.78,176.45,204Zm.37-3.81h.62c-.07.76-.11,1.14-.18,1.9h-.62C176.71,201.35,176.75,201,176.82,200.21Z" style="fill:#72BF44"></path><path d="M177,198.3h.62c0-.62.08-.93.14-1.55l-1.53,0c0,.25,0,.37-.06.62h.92C177.06,197.75,177,197.93,177,198.3Z" style="fill:#72BF44"></path><path d="M168.69,196.77l1.89,0c0,.24-.05.36-.07.61l-1.89,0C168.65,197.13,168.66,197,168.69,196.77Zm3.77,0h1.89c0,.25,0,.37-.07.61h-1.89C172.42,197.16,172.43,197,172.46,196.8Z" style="fill:#72BF44"></path><path d="M157.4,196.43l1.88.08c0,.24-.05.36-.09.59l-1.88-.09Zm3.76.16,1.88.06c0,.24,0,.36-.08.6l-1.89-.07C161.11,196.94,161.13,196.82,161.16,196.59Zm3.76.11,1.89,0c0,.24-.05.36-.08.6l-1.89,0C164.88,197.06,164.89,196.94,164.92,196.7Z" style="fill:#72BF44"></path><path d="M153.75,197.7l.61,0,.15-.88.91,0,.1-.58-1.52-.09Z" style="fill:#72BF44"></path><path d="M152.79,203.09l.62,0c-.13.72-.19,1.08-.32,1.8l-.63-.05C152.59,204.17,152.66,203.81,152.79,203.09Zm.64-3.59.62,0c-.13.72-.19,1.08-.32,1.8l-.62,0C153.24,200.58,153.3,200.22,153.43,199.5Z" style="fill:#72BF44"></path><path d="M150.79,213.82l.64.07c-.14.71-.2,1.07-.34,1.78l-.64-.07C150.58,214.89,150.65,214.54,150.79,213.82Zm.68-3.56.63.05c-.13.72-.2,1.08-.33,1.79l-.64-.06C151.26,211.33,151.33,211,151.47,210.26Zm.66-3.58.63,0c-.13.72-.2,1.08-.33,1.79l-.63-.05C151.93,207.75,152,207.4,152.13,206.68Z" style="fill:#72BF44"></path><path d="M125.25,215.11c.64.12,1,.19,1.6.3.07-.21.1-.32.16-.54l-1-.17c.09-.33.14-.49.23-.81l-.64-.12C125.48,214.31,125.4,214.58,125.25,215.11Z" style="fill:#72BF44"></path><path d="M129,215.23l2,.35c-.05.21-.08.32-.14.54l-2-.35Zm4,.68,2,.32-.13.55-2-.32C132.88,216.24,132.91,216.13,133,215.91Z" style="fill:#72BF44"></path><path d="M137,216.54l2,.29c-.05.23-.07.34-.13.56-.8-.11-1.2-.17-2-.3C136.87,216.87,136.89,216.76,137,216.54Zm4,.58,2,.27-.12.57-2-.28C140.87,217.46,140.89,217.34,140.94,217.12Zm4,.53,2,.25-.12.57-2-.25C144.87,218,144.9,217.88,145,217.65Z" style="fill:#72BF44"></path><path d="M148.84,218.71l1.63.18c.11-.57.17-.86.28-1.44l-.65-.07-.17.87-1-.11Z" style="fill:#72BF44"></path><path d="M150.79,213.82l.64.07c-.14.71-.2,1.07-.34,1.78l-.64-.07C150.58,214.89,150.65,214.54,150.79,213.82Zm.68-3.56.63.05c-.13.72-.2,1.08-.33,1.79l-.64-.06C151.26,211.33,151.33,211,151.47,210.26Z" style="fill:#72BF44"></path><path d="M152.13,206.68l.63,0c-.13.72-.2,1.08-.33,1.79l-.63-.05C151.93,207.75,152,207.4,152.13,206.68Zm.66-3.59.62,0c-.13.72-.19,1.08-.32,1.8l-.63-.05C152.59,204.17,152.66,203.81,152.79,203.09Zm.64-3.59.62,0c-.13.72-.19,1.08-.32,1.8l-.62,0C153.24,200.58,153.3,200.22,153.43,199.5Z" style="fill:#72BF44"></path><path d="M153.75,197.7l.61,0,.25-1.46-1.52-.09-.1.58.91,0Z" style="fill:#72BF44"></path><path d="M145.6,195.62l1.87.16c-.05.23-.07.34-.11.57l-1.88-.16Zm3.74.31,1.88.13c-.05.23-.07.35-.11.58l-1.88-.14C149.28,196.27,149.3,196.16,149.34,195.93Z" style="fill:#72BF44"></path><path d="M134.39,194.44l1.86.23-.13.55-1.87-.23C134.31,194.77,134.34,194.66,134.39,194.44Zm3.73.44,1.87.2c-.05.23-.08.34-.13.56l-1.87-.2C138,195.21,138.07,195.1,138.12,194.88Zm3.73.39,1.87.18c0,.23-.07.34-.12.57l-1.87-.18C141.78,195.61,141.81,195.5,141.85,195.27Z" style="fill:#72BF44"></path><path d="M130.67,195.37l.6.08c.09-.33.13-.49.21-.82l.91.12c.05-.22.08-.33.14-.55-.6-.08-.91-.11-1.51-.2Z" style="fill:#72BF44"></path><path d="M129.32,200.42l.62.09-.45,1.68-.62-.1Zm.9-3.37.61.09-.45,1.69-.61-.09Z" style="fill:#72BF44"></path><path d="M126.57,210.45l.63.11c-.18.67-.27,1-.46,1.67l-.64-.12C126.29,211.45,126.38,211.11,126.57,210.45Zm.93-3.34.63.11c-.19.67-.28,1-.46,1.67l-.63-.11C127.22,208.11,127.31,207.78,127.5,207.11Zm.92-3.34.62.1c-.18.67-.28,1-.46,1.67l-.62-.1C128.14,204.77,128.23,204.44,128.42,203.77Z" style="fill:#72BF44"></path><path d="M101.07,209.59l1.58.42c.08-.2.11-.3.19-.5l-1-.25c.12-.3.17-.45.29-.74l-.63-.17Z" style="fill:#72BF44"></path><path d="M104.79,210l1.95.5-.18.5c-.78-.2-1.18-.29-2-.5C104.68,210.31,104.71,210.21,104.79,210Zm3.91,1,2,.47-.17.51-2-.47C108.59,211.29,108.62,211.19,108.7,211Z" style="fill:#72BF44"></path><path d="M112.62,211.91l2,.44-.17.52c-.79-.17-1.18-.26-2-.45C112.51,212.22,112.55,212.12,112.62,211.91Zm3.93.88,2,.42-.17.52-2-.42C116.45,213.1,116.48,213,116.55,212.79Zm3.94.82,2,.4-.15.53-2-.4C120.39,213.93,120.42,213.83,120.49,213.61Z" style="fill:#72BF44"></path><path d="M124.29,214.93l1.6.3c.15-.53.23-.8.38-1.34l-.64-.12c-.09.32-.14.48-.23.81l-1-.19Z" style="fill:#72BF44"></path><path d="M126.57,210.45l.63.11c-.18.67-.27,1-.46,1.67l-.64-.12C126.29,211.45,126.38,211.11,126.57,210.45Zm.93-3.34.63.11c-.19.67-.28,1-.46,1.67l-.63-.11C127.22,208.11,127.31,207.78,127.5,207.11Z" style="fill:#72BF44"></path><path d="M128.42,203.77l.62.1c-.18.67-.28,1-.46,1.68l-.62-.11C128.14,204.77,128.23,204.44,128.42,203.77Zm.9-3.35.62.09-.45,1.68-.62-.1Zm.9-3.37.61.09-.45,1.69-.61-.09Z" style="fill:#72BF44"></path><path d="M130.67,195.37l.6.08.35-1.37-1.5-.2c-.06.22-.09.33-.14.54l.9.13C130.79,194.88,130.75,195,130.67,195.37Z" style="fill:#72BF44"></path><path d="M122.7,192.76l1.85.3-.15.53c-.75-.11-1.12-.17-1.86-.3Zm3.71.58,1.85.28-.15.54-1.86-.28C126.31,193.67,126.34,193.56,126.41,193.34Z" style="fill:#72BF44"></path><path d="M111.62,190.75l1.84.36-.17.52-1.85-.37C111.51,191.06,111.55,191,111.62,190.75Zm3.68.72,1.85.34-.17.52-1.85-.34C115.2,191.78,115.24,191.67,115.3,191.47Zm3.7.67,1.84.32-.15.52-1.86-.32Z" style="fill:#72BF44"></path><path d="M107.84,191.33l.6.13.27-.76.89.19c.07-.21.11-.31.18-.51l-1.49-.31Z" style="fill:#72BF44"></path><path d="M106.16,196l.6.14c-.22.62-.34.93-.56,1.56l-.61-.15Zm1.12-3.11.6.13c-.22.63-.33.94-.56,1.56l-.6-.13C107,193.82,107.06,193.51,107.28,192.89Z" style="fill:#72BF44"></path><path d="M102.71,205.28l.63.16-.58,1.54-.63-.17C102.37,206.2,102.48,205.89,102.71,205.28Zm1.16-3.08.62.15-.58,1.54-.62-.15C103.53,203.12,103.64,202.81,103.87,202.2Zm1.15-3.1.61.15-.57,1.55-.61-.15Z" style="fill:#72BF44"></path><polygon points="87.23 214.72 94.17 218.44 96.36 208.71 88.16 206.42 87.23 214.72" style="fill:#ffc3bd"></polygon><path d="M95,166.78s-9.87-.86-12.16,12-9.44,27.33,0,35.06l5.44,3.29a23.75,23.75,0,0,0,5.15-10.45l-3.08-2.14,2.36-8.88S99,169.78,95,166.78Z" style="fill:#72BF44"></path><path d="M95,166.78s-9.87-.86-12.16,12-9.44,27.33,0,35.06l5.44,3.29a23.75,23.75,0,0,0,5.15-10.45l-3.08-2.14,2.36-8.88S99,169.78,95,166.78Z" style="fill:#fff;opacity:0.5"></path><path d="M103,384.15,98,399.56a2,2,0,0,0,.79,2.21,54.59,54.59,0,0,0,5.22,3.11,67.76,67.76,0,0,0,7.18,2.19,1.93,1.93,0,0,1,1.44,1.87h0a1.94,1.94,0,0,1-1.94,1.94H86.11a2,2,0,0,1-1.92-2.24l4.23-26.49a1.94,1.94,0,0,1,2.11-1.62l10.78,1.1A1.94,1.94,0,0,1,103,384.15Z" style="fill:#263238"></path><path d="M93.28,235.57l27.1,1s2,70,.1,89.86c-1.69,17.81-13.14,47.39-15.36,56.64a1.87,1.87,0,0,1-2.07,1.41L89,382.63a1.87,1.87,0,0,1-1.62-2.1c1-7.4,3.65-23.21,10.09-49.37a62.85,62.85,0,0,0,1.8-13.65c.2-9.85.28-27.69-1.26-40.83C96.66,265.25,91.8,253.4,93.28,235.57Z" style="fill:#72BF44"></path><path d="M103,384.15,98,399.56a2,2,0,0,0,.79,2.21,54.59,54.59,0,0,0,5.22,3.11,67.76,67.76,0,0,0,7.18,2.19,1.93,1.93,0,0,1,1.44,1.87h0a1.94,1.94,0,0,1-1.94,1.94H86.11a2,2,0,0,1-1.92-2.24l4.23-26.49a1.94,1.94,0,0,1,2.11-1.62l10.78,1.1A1.94,1.94,0,0,1,103,384.15Z" style="fill:#263238"></path><path d="M93.28,235.57l27.1,1s2,70,.1,89.86c-1.69,17.81-13.14,47.39-15.36,56.64a1.87,1.87,0,0,1-2.07,1.41L89,382.63a1.87,1.87,0,0,1-1.62-2.1c1-7.4,3.65-23.21,10.09-49.37a62.85,62.85,0,0,0,1.8-13.65c.2-9.85.28-27.69-1.26-40.83C96.66,265.25,91.8,253.4,93.28,235.57Z" style="fill:#72BF44"></path><path d="M93.28,235.57l27.1,1s2,70,.1,89.86c-1.69,17.81-13.14,47.39-15.36,56.64a1.87,1.87,0,0,1-2.07,1.41L89,382.63a1.87,1.87,0,0,1-1.62-2.1c1-7.4,3.65-23.21,10.09-49.37a62.85,62.85,0,0,0,1.8-13.65c.2-9.85.28-27.69-1.26-40.83C96.66,265.25,91.8,253.4,93.28,235.57Z" style="opacity:0.2"></path><path d="M112.5,252.64a251.7,251.7,0,0,0,8.9,59.86c.35-11.9-.44-42.61-.61-54.66l-3.42-5.2Z" style="opacity:0.2"></path><path d="M148.16,382.9l-1.27,16.88a1.91,1.91,0,0,0,.91,1.79A67.51,67.51,0,0,0,154,405a76.45,76.45,0,0,0,7.6,2.14A1.91,1.91,0,0,1,163,409h0a1.92,1.92,0,0,1-1.92,1.92h-25a1.92,1.92,0,0,1-1.92-1.86l-.75-25.65a1.93,1.93,0,0,1,1.82-2l10.93-.55A1.92,1.92,0,0,1,148.16,382.9Z" style="fill:#263238"></path><path d="M136.57,237.71s14.24,73.41,15.59,88.67c1.23,13.84-1.79,45.93-2.25,56.14a1.7,1.7,0,0,1-1.71,1.63H133.76a1.7,1.7,0,0,1-1.71-1.66c-.18-7.63-.49-26,.22-44.64a61.58,61.58,0,0,0-3-21.26c-5.1-15.9-14.37-45.87-17.65-63.71-.7-3.82-1.91-15.43-1.91-15.43Z" style="fill:#72BF44"></path><path d="M136.57,237.71s14.24,73.41,15.59,88.67c1.23,13.84-1.79,45.93-2.25,56.14a1.7,1.7,0,0,1-1.71,1.63H133.76a1.7,1.7,0,0,1-1.71-1.66c-.18-7.63-.49-26,.22-44.64a61.58,61.58,0,0,0-3-21.26c-5.1-15.9-14.37-45.87-17.65-63.71-.7-3.82-1.91-15.43-1.91-15.43Z" style="opacity:0.2"></path><path d="M104.18,164.26s5.4-.54,5.34-10.48c0,0,5-2.27,8.23.68s-3,9.79,1.06,12.69S104.18,164.26,104.18,164.26Z" style="fill:#ffc3bd"></path><path d="M114.75,158.47a18.56,18.56,0,0,0,2.94,3.55c.29-1.28.71-2.62.92-3.85Z" style="opacity:0.1"></path><polygon points="165 198.61 181.75 196.75 184.9 191.74 188.9 189.32 192.05 190.87 189.9 201.61 186.47 202.94 182.46 202.94 165 207.62 165 198.61" style="fill:#ffc3bd"></polygon><path d="M137,168.84s8.31-.57,16,12.59l7.44,14.89h5.73s3.15,8.3,0,13.16c0,0-11.16,4.3-29.2-18l-3.72-14.6Z" style="fill:#72BF44"></path><path d="M137,168.84s8.31-.57,16,12.59l7.44,14.89h5.73s3.15,8.3,0,13.16c0,0-11.16,4.3-29.2-18l-3.72-14.6Z" style="fill:#fff;opacity:0.5"></path><path d="M92.21,241.19s29.77,5,46.18,0c0,0-3.82-16,1.9-43.5,0,0-5.72-14.5,0-29,0,0-22.89-6.87-46.94-2.68a186.11,186.11,0,0,0-2.67,25.57C90.25,204,89.92,211.81,92.21,241.19Z" style="fill:#72BF44"></path><path d="M102.61,166.78s-1.15-6.59,10-5.44,13.16,6.87,13.16,6.87Z" style="fill:#72BF44"></path><path d="M91.12,225.84a310.33,310.33,0,0,0,33.48,1.78c4,0,8.2-.08,12.55-.26,0-1.42,0-3,0-4.57a310.31,310.31,0,0,1-46.34-1.58C90.94,222.67,91,224.21,91.12,225.84Z" style="fill:#263238"></path><path d="M123.83,208.94c-.16-11,.77-34.67,6.81-40.92a4,4,0,0,1,1.82-1.16c-1.76-.34-3.77-.68-6-1-3.44,4.46-5.69,13.22-6.69,26.07-.54,7-.57,13.46-.54,16.83a223.47,223.47,0,0,1-22.45-2.19c.1-5.69.49-22.11,1.64-30.15A54.11,54.11,0,0,1,101,165c-1.66.14-3.34.33-5,.57a71.23,71.23,0,0,0-2.11,10.19c-1.15,8.09-1.55,23.76-1.67,30.05l-1.86-.33c0,1.47,0,3,.06,4.69a223.45,223.45,0,0,0,39.35,3.42c2.6,0,5.3-.05,8.05-.15.15-1.48.33-3,.54-4.6C133.29,209.07,128.42,209.07,123.83,208.94Z" style="fill:#263238"></path><path d="M91.12,225.84a310.33,310.33,0,0,0,33.48,1.78c4,0,8.2-.08,12.55-.26,0-1.42,0-3,0-4.57a310.31,310.31,0,0,1-46.34-1.58C90.94,222.67,91,224.21,91.12,225.84Z" style="fill:#fff;opacity:0.8"></path><path d="M123.83,208.94c-.16-11,.77-34.67,6.81-40.92a4,4,0,0,1,1.82-1.16c-1.76-.34-3.77-.68-6-1-3.44,4.46-5.69,13.22-6.69,26.07-.54,7-.57,13.46-.54,16.83a223.47,223.47,0,0,1-22.45-2.19c.1-5.69.49-22.11,1.64-30.15A54.11,54.11,0,0,1,101,165c-1.66.14-3.34.33-5,.57a71.23,71.23,0,0,0-2.11,10.19c-1.15,8.09-1.55,23.76-1.67,30.05l-1.86-.33c0,1.47,0,3,.06,4.69a223.45,223.45,0,0,0,39.35,3.42c2.6,0,5.3-.05,8.05-.15.15-1.48.33-3,.54-4.6C133.29,209.07,128.42,209.07,123.83,208.94Z" style="fill:#fff;opacity:0.8"></path><polygon points="99.47 190.41 116.63 191.96 116.63 202.84 99.47 201.12 99.47 190.41" style="fill:#fff"></polygon><path d="M129.52,142.29c.06.63-.22,1.18-.64,1.21s-.82-.46-.86-1.08.22-1.17.64-1.2S129.46,141.66,129.52,142.29Z" style="fill:#263238"></path><path d="M127.74,143.07l2.83,5.09a4.36,4.36,0,0,1-3.92.15Z" style="fill:#ba4d3c"></path><path d="M104.85,140c.38,8.42.36,12,4.54,16.38,6.42,4.5,16.56,4.29,18.7-4.08,1.93-7.53,1-20-7.2-23.53a11.51,11.51,0,0,0-16,11.23Z" style="fill:#ffc3bd"></path><path d="M126.2,139.34a.4.4,0,0,0,.32,0,2.6,2.6,0,0,1,2.38,0,.33.33,0,0,0,.45-.1.34.34,0,0,0-.1-.46,3.25,3.25,0,0,0-3-.09.33.33,0,0,0-.17.44h0A.44.44,0,0,0,126.2,139.34Z" style="fill:#263238"></path><path d="M123,145.5s1.43-6.2,0-7.92-.62-2.11.92-3.62,2.8-4.6-.35-6.16-9.35-2.52-14.41.43-5.34,6.83-5.43,9.71,1,12.72,2,15a7.86,7.86,0,0,0,3.66,3.41s1.15-1.27,4.35,0C113.74,156.35,121.66,149.22,123,145.5Z" style="fill:#263238"></path><path d="M122.32,142.35a6.52,6.52,0,0,1,1.27,4.81c-.33,2.26-2.58,2.49-4.24,1.11-1.51-1.25-3.13-3.93-2-5.84A2.93,2.93,0,0,1,122.32,142.35Z" style="fill:#ffc3bd"></path><path d="M102.11,136.71a17.77,17.77,0,0,0,1.56,7.26c6.21-.78,11.06-3.65,12.29-7.26Z" style="fill:#263238"></path><path d="M102.11,136.71a17.77,17.77,0,0,0,1.56,7.26c6.21-.78,11.06-3.65,12.29-7.26Z" style="fill:#fff;opacity:0.6000000000000001"></path><path d="M137.17,135.46h-6.11c-.44-7.73-4.91-13.8-12.8-13.8s-16.34,6.07-17.18,13.8H99.62a1.25,1.25,0,0,0,0,2.49h37.55A1.25,1.25,0,0,0,137.17,135.46Z" style="fill:#72BF44"></path><path d="M101.09,135.46h30a19.24,19.24,0,0,0-.79-4.52H102.51A12.63,12.63,0,0,0,101.09,135.46Z" style="opacity:0.1"></path></g></svg>